#!OML:ASF X:\für Bonn\!DataBase\2005_08_11_Bastian_Final\c3d\Bastian.ASF
:FULLY-SPECIFIED
:DEGREES
175
root 7.41451 14.7173 -2.69316 832.511 80.7554 -253.78
lowerback 61.6962 -11.4395 15.4511
upperback 14.6233 1.67999 5.73576
thorax -3.99566 2.47296 -0.614877
lowerneck -3.90708 -8.087 -0.158712
upperneck -33.2536 -10.0111 3.45673
head -9.74395 -4.54156 1.8272
rclavicle -3.49861e-014 3.4191e-014
rhumerus 29.7356 4.7787 -43.699
rradius 21.1216
rwrist 2.48138
rhand -34.5866 -1.49663
rfingers 7.12502
rthumb -7.74574 -31.3348
lclavicle -3.49861e-014 3.4191e-014
lhumerus 13.4027 -34.7539 71.5753
lradius 51.8611
lwrist 16.2898
lhand -11.4318 -9.68158
lfingers 7.12502
lthumb 14.6045 19.7842
rfemur -56.2865 -6.05554 9.5363
rtibia 82.547
rfoot -23.2063 -8.47074
rtoes -14.0058
lfemur -47.9333 -0.0103675 -33.0802
ltibia 75.9706
lfoot -24.2426 -11.7831
ltoes 5.60783
176
root 7.47668 14.8268 -2.6722 833.917 81.0101 -252.103
lowerback 61.081 -11.2864 15.3586
upperback 14.8791 1.63804 5.76343
thorax -3.72299 2.48226 -0.567504
lowerneck -4.11296 -8.04121 -0.147476
upperneck -33.0836 -9.93513 3.39876
head -9.64867 -4.49881 1.78308
rclavicle 1.27222e-013 2.5842e-014
rhumerus 29.1632 6.33761 -43.4513
rradius 21.8168
rwrist 1.72917
rhand -33.1987 -1.28499
rfingers 7.12502
rthumb -6.40599 -31.1681
lclavicle 1.27222e-013 2.5842e-014
lhumerus 13.0011 -35.0085 71.8072
lradius 51.4466
lwrist 16.472
lhand -11.416 -9.68202
lfingers 7.12502
lthumb 14.6197 19.7827
rfemur -54.9264 -6.00454 9.96385
rtibia 81.34
rfoot -23.1921 -8.59594
rtoes -14.0704
lfemur -46.7983 -0.144529 -32.5442
ltibia 74.8888
lfoot -23.965 -11.6681
ltoes 4.97168
177
root 7.54041 14.9341 -2.65101 835.611 81.3108 -250.127
lowerback 60.4749 -11.1473 15.3078
upperback 15.1284 1.61364 5.80919
thorax -3.44945 2.49894 -0.520673
lowerneck -4.40033 -7.99404 -0.135599
upperneck -32.8626 -9.85869 3.32405
head -9.52137 -4.45516 1.72765
rclavicle -7.31528e-014 -8.42847e-014
rhumerus 28.5778 7.76193 -43.3142
rradius 22.4884
rwrist 1.19604
rhand -31.6922 -0.921125
rfingers 7.12502
rthumb -4.95154 -30.8433
lclavicle -7.31528e-014 -8.42847e-014
lhumerus 12.6559 -35.2795 72.0486
lradius 50.9709
lwrist 16.6632
lhand -11.3844 -9.6822
lfingers 7.12502
lthumb 14.6501 19.7803
rfemur -53.5457 -5.96416 10.4566
rtibia 80.1255
rfoot -23.2153 -8.67119
rtoes -14.2662
lfemur -45.6938 -0.272118 -31.9535
ltibia 73.8598
lfoot -23.6878 -11.4969
ltoes 3.92813
178
root 7.60673 15.0384 -2.62905 837.669 81.62 -247.751
lowerback 59.8839 -11.0319 15.2809
upperback 15.3532 1.582 5.84873
thorax -3.19782 2.51152 -0.485421
lowerneck -4.66786 -7.93102 -0.0629378
upperneck -32.6097 -9.76726 3.2161
head -9.39222 -4.41005 1.6509
rclavicle 1.59028e-014 8.62725e-014
rhumerus 27.9795 8.87252 -43.5153
rradius 23.0752
rwrist 0.957661
rhand -30.0349 -0.290872
rfingers 7.12502
rthumb -3.35118 -30.2443
lclavicle 1.59028e-014 8.62725e-014
lhumerus 12.2342 -35.6024 72.2815
lradius 50.5345
lwrist 16.9161
lhand -11.3651 -9.69862
lfingers 7.12502
lthumb 14.6687 19.7625
rfemur -52.119 -5.97002 11.0001
rtibia 78.9022
rfoot -23.2302 -8.77234
rtoes -14.5341
lfemur -44.5677 -0.42033 -31.3267
ltibia 72.8862
lfoot -23.3514 -11.3495
ltoes 2.97724
179
root 7.67643 15.1427 -2.60788 839.915 81.918 -245.203
lowerback 59.2827 -10.9105 15.2659
upperback 15.5516 1.55874 5.89244
thorax -2.97161 2.52362 -0.454547
lowerneck -4.96578 -7.86524 0.0210361
upperneck -32.3058 -9.68796 3.0466
head -9.24371 -4.36701 1.54968
rclavicle 3.18055e-015 1.47101e-014
rhumerus 27.3421 10.0606 -43.722
rradius 23.6965
rwrist 0.659269
rhand -28.3805 0.224851
rfingers 7.12502
rthumb -1.75342 -29.7477
lclavicle 3.18055e-015 1.47101e-014
lhumerus 11.781 -35.9159 72.5816
lradius 50.0526
lwrist 17.1278
lhand -11.3259 -9.78141
lfingers 7.12502
lthumb 14.7066 19.677
rfemur -50.7034 -6.01516 11.5498
rtibia 77.6751
rfoot -23.2586 -8.82978
rtoes -14.6523
lfemur -43.479 -0.60257 -30.7016
ltibia 71.9728
lfoot -22.9615 -11.1509
ltoes 2.15366
